<svg id="svg" version="1.1" width="400" height="403.7914691943128" viewBox="0 0 400 403.7914691943128" xmlns="http://www.w3.org/2000/svg" xmlns:xlink="http://www.w3.org/1999/xlink" ><g id="svgg"><path id="path0" d="M272.928 85.349 C 271.568 85.597,270.323 85.935,270.161 86.100 C 269.999 86.265,269.612 86.400,269.301 86.400 C 267.695 86.400,263.079 90.281,258.600 95.399 C 252.385 102.500,250.156 104.901,240.800 114.577 C 237.390 118.104,232.711 122.972,230.402 125.395 C 222.077 134.131,216.549 139.460,213.800 141.397 C 212.260 142.482,210.552 143.781,210.004 144.285 C 209.456 144.788,208.796 145.200,208.537 145.200 C 208.279 145.200,208.007 145.339,207.933 145.509 C 207.729 145.982,202.068 150.000,201.606 150.000 C 201.383 150.000,201.200 150.180,201.200 150.400 C 201.200 150.620,200.945 150.800,200.633 150.800 C 200.322 150.800,200.007 150.943,199.933 151.119 C 199.773 151.501,188.912 158.400,188.469 158.400 C 188.299 158.400,187.946 158.614,187.683 158.877 C 186.227 160.333,165.321 170.800,163.869 170.800 C 163.589 170.800,163.189 170.950,162.980 171.133 C 162.596 171.471,157.144 173.210,154.200 173.934 C 151.459 174.608,146.889 175.200,144.421 175.200 C 141.201 175.200,140.094 176.334,141.235 178.465 C 141.692 179.318,149.842 179.275,153.000 178.401 C 153.660 178.219,155.100 177.870,156.200 177.625 C 158.479 177.118,162.214 176.071,163.400 175.607 C 163.840 175.434,165.460 174.798,167.000 174.193 C 170.197 172.937,178.640 168.861,182.200 166.854 C 183.520 166.110,185.410 165.044,186.400 164.485 C 187.390 163.926,188.757 163.157,189.437 162.776 C 190.117 162.396,192.141 161.165,193.933 160.042 C 195.725 158.919,197.358 158.000,197.562 158.000 C 197.766 158.000,197.993 157.862,198.067 157.693 C 198.140 157.524,200.000 156.234,202.200 154.827 C 206.538 152.052,212.533 147.848,213.775 146.710 C 214.202 146.320,214.673 146.000,214.821 146.000 C 214.970 146.000,215.701 145.459,216.446 144.799 C 217.191 144.138,218.382 143.193,219.093 142.699 C 219.804 142.204,222.324 139.740,224.693 137.222 C 229.807 131.788,231.877 129.689,236.406 125.346 C 240.399 121.516,249.691 111.660,254.634 106.010 C 255.495 105.025,256.575 103.832,257.034 103.357 C 257.493 102.883,258.573 101.619,259.434 100.548 C 264.826 93.844,267.726 91.403,272.400 89.633 C 275.928 88.298,278.289 88.530,283.159 90.691 C 285.017 91.515,289.200 96.167,289.200 97.409 C 289.200 101.491,299.409 114.400,302.638 114.400 C 302.760 114.400,304.061 115.200,305.530 116.177 C 313.305 121.352,315.241 126.231,309.188 125.398 C 305.897 124.946,305.801 125.040,304.061 130.428 C 302.781 134.394,304.418 139.114,307.113 139.229 C 309.099 139.314,313.960 144.822,313.989 147.020 C 313.995 147.471,314.208 148.048,314.461 148.301 C 315.260 149.100,315.132 157.124,314.293 158.875 C 313.572 160.379,311.171 162.696,309.519 163.482 C 307.225 164.572,305.654 165.138,303.800 165.542 C 302.700 165.781,300.955 166.162,299.923 166.389 C 298.890 166.615,296.810 166.800,295.299 166.800 C 291.791 166.800,290.994 167.357,291.153 169.700 C 291.210 170.542,300.217 170.733,303.523 169.962 C 315.010 167.284,319.204 163.072,319.196 154.225 C 319.188 146.380,314.440 136.782,310.053 135.742 C 308.094 135.278,307.544 134.457,307.831 132.426 C 308.167 130.052,308.468 129.810,311.800 129.234 C 317.085 128.321,318.227 125.950,315.860 120.800 C 314.269 117.340,309.249 112.898,303.495 109.859 C 302.008 109.073,300.342 108.108,299.793 107.715 C 298.835 107.028,295.600 102.376,295.600 101.685 C 295.600 101.500,295.150 100.417,294.600 99.277 C 294.050 98.137,293.600 97.047,293.600 96.855 C 293.600 96.663,292.925 95.289,292.100 93.802 C 289.253 88.671,285.343 86.107,279.000 85.211 C 275.815 84.761,276.193 84.753,272.928 85.349 M283.645 119.475 C 279.048 120.099,273.846 127.364,273.124 134.169 C 272.972 135.602,272.412 135.838,271.382 134.903 C 269.599 133.286,265.678 131.140,263.200 130.426 C 262.210 130.140,260.878 129.748,260.240 129.553 C 258.628 129.062,252.632 129.111,250.646 129.632 C 246.722 130.661,245.694 130.996,243.904 131.835 C 237.524 134.825,232.478 140.461,229.969 147.400 C 228.707 150.890,228.516 164.989,229.574 176.600 C 230.361 185.234,230.516 189.200,230.066 189.200 C 229.708 189.200,227.173 187.248,226.400 186.376 C 226.079 186.014,219.209 181.200,219.013 181.200 C 218.855 181.200,216.478 179.701,215.376 178.906 C 213.296 177.404,201.326 171.617,198.295 170.647 C 196.959 170.219,195.600 171.206,195.600 172.603 C 195.600 173.909,195.913 174.133,199.800 175.597 C 201.048 176.067,209.376 180.134,209.600 180.382 C 209.710 180.504,210.835 181.136,212.100 181.787 C 213.365 182.437,214.400 183.111,214.400 183.284 C 214.400 183.458,214.589 183.600,214.819 183.600 C 216.628 183.600,226.973 191.709,229.602 195.187 C 234.459 201.613,235.984 199.982,234.827 189.600 C 234.570 187.290,234.215 183.690,234.038 181.600 C 233.862 179.510,233.493 175.190,233.218 172.000 C 232.619 165.050,232.856 151.671,233.615 149.600 C 236.635 141.351,241.728 136.365,249.600 133.952 C 251.922 133.240,259.728 133.243,261.614 133.956 C 266.191 135.687,271.449 139.635,272.160 141.874 C 272.510 142.975,274.421 143.976,275.438 143.590 C 276.181 143.308,276.308 142.830,276.549 139.402 C 277.307 128.620,281.038 122.971,287.215 123.252 C 289.494 123.356,290.000 123.061,290.000 121.625 C 290.000 119.786,287.525 118.948,283.645 119.475 M247.279 147.469 C 244.218 148.978,243.997 152.559,246.641 157.800 C 248.052 160.597,248.339 161.032,256.138 172.200 C 257.828 174.620,259.428 176.915,259.694 177.300 C 260.622 178.646,263.200 177.959,263.200 176.366 C 263.200 175.359,257.955 166.847,257.100 166.467 C 256.935 166.393,256.800 166.160,256.800 165.949 C 256.800 165.738,256.350 165.080,255.800 164.487 C 255.250 163.893,254.800 163.280,254.800 163.123 C 254.800 162.967,254.015 161.705,253.055 160.319 C 249.582 155.306,248.445 152.611,249.204 151.192 C 249.854 149.979,250.383 150.148,257.535 153.850 C 272.747 161.724,280.217 168.567,282.367 176.600 C 282.924 178.678,282.932 221.904,282.378 231.800 C 282.156 235.760,281.803 245.120,281.592 252.600 C 281.024 272.845,280.485 286.122,280.184 287.320 C 279.865 288.593,280.562 291.908,281.674 294.400 C 285.753 303.539,285.449 305.018,278.859 308.086 C 274.301 310.208,273.937 310.303,268.200 310.877 C 262.303 311.467,260.463 312.703,262.480 314.720 C 263.092 315.332,268.526 315.354,271.094 314.756 C 274.610 313.937,277.397 313.100,277.780 312.749 C 277.989 312.557,278.418 312.400,278.733 312.400 C 279.749 312.400,284.958 309.564,286.334 308.262 C 289.915 304.874,289.782 302.156,285.587 293.000 L 284.304 290.200 284.592 285.000 C 284.751 282.140,285.039 273.590,285.233 266.000 C 286.059 233.692,286.320 224.714,286.786 212.578 C 287.353 197.781,287.148 178.722,286.392 176.000 C 284.517 169.252,280.721 163.913,274.600 159.418 C 273.720 158.771,272.910 158.142,272.800 158.020 C 272.516 157.705,268.320 155.001,267.600 154.669 C 267.270 154.517,266.370 154.009,265.600 153.539 C 263.468 152.239,256.067 148.570,253.685 147.632 C 251.158 146.638,249.074 146.585,247.279 147.469 M119.200 185.861 C 114.647 187.361,99.747 195.174,98.400 196.768 C 98.290 196.898,97.570 197.483,96.800 198.067 C 91.832 201.836,88.560 206.096,87.020 210.800 C 86.623 212.010,86.142 213.413,85.950 213.919 C 85.468 215.184,85.511 219.654,86.033 222.576 C 86.979 227.876,87.669 231.033,88.025 231.695 C 88.231 232.077,88.400 232.844,88.400 233.400 C 88.400 233.956,88.564 234.723,88.764 235.105 C 88.964 235.487,89.593 237.330,90.161 239.200 C 90.730 241.070,91.566 243.770,92.019 245.200 C 93.060 248.487,93.628 250.977,94.846 257.600 C 95.466 260.970,95.441 278.115,94.807 285.000 C 94.543 287.860,94.169 292.450,93.975 295.200 C 93.338 304.254,92.878 309.360,92.444 312.200 C 91.463 318.616,91.844 319.468,96.000 320.155 C 96.770 320.283,98.570 320.671,100.000 321.019 C 101.430 321.366,103.320 321.805,104.200 321.993 C 105.635 322.299,108.259 322.915,113.000 324.058 C 122.553 326.361,124.800 326.347,124.800 323.987 C 124.800 322.887,124.075 322.553,119.200 321.406 C 116.670 320.811,113.970 320.174,113.200 319.991 C 112.430 319.807,110.540 319.365,109.000 319.008 C 107.460 318.650,105.570 318.201,104.800 318.009 C 104.030 317.817,102.320 317.446,101.000 317.185 C 95.813 316.159,95.935 316.447,96.954 307.600 C 97.296 304.630,97.754 300.130,97.972 297.600 C 98.190 295.070,98.554 290.840,98.781 288.200 C 100.253 271.094,99.555 258.116,96.587 247.400 C 96.222 246.080,95.777 244.370,95.600 243.600 C 95.422 242.830,94.979 241.210,94.616 240.000 C 94.253 238.790,93.863 237.350,93.748 236.800 C 93.634 236.250,93.387 235.440,93.200 235.000 C 93.013 234.560,92.767 233.750,92.653 233.200 C 92.539 232.650,92.151 231.120,91.790 229.800 C 87.970 215.841,89.898 209.083,100.000 201.009 C 104.866 197.120,115.937 191.044,121.100 189.428 C 121.827 189.200,122.000 188.852,122.000 187.620 C 122.000 185.875,121.022 185.261,119.200 185.861 M134.600 190.293 C 132.458 190.603,131.310 192.350,132.480 193.520 C 132.791 193.831,134.412 194.000,137.096 194.000 C 141.827 194.000,143.340 194.539,145.770 197.091 C 147.258 198.654,151.200 206.112,151.200 207.365 C 151.200 208.273,155.154 216.029,156.857 218.462 C 157.265 219.046,157.600 219.706,157.600 219.928 C 157.600 220.151,157.738 220.393,157.907 220.467 C 158.076 220.540,158.923 221.590,159.789 222.800 C 160.656 224.010,162.048 225.718,162.883 226.596 C 163.717 227.474,164.400 228.316,164.400 228.469 C 164.400 229.599,174.680 237.078,178.600 238.801 C 183.666 241.027,185.029 241.319,191.200 241.504 C 197.464 241.691,200.447 241.198,211.200 238.200 C 212.190 237.924,213.810 237.484,214.800 237.222 C 215.790 236.960,217.149 236.579,217.821 236.376 C 218.493 236.172,219.933 235.814,221.021 235.580 C 222.109 235.345,223.810 234.970,224.800 234.746 C 227.837 234.057,233.502 233.867,234.919 234.406 C 237.793 235.500,238.751 236.047,239.981 237.293 C 241.275 238.605,244.000 243.788,244.000 244.938 C 244.000 245.276,244.180 245.664,244.400 245.800 C 244.620 245.936,244.800 246.478,244.800 247.005 C 244.800 247.531,244.959 248.376,245.154 248.881 C 246.746 253.012,248.398 265.369,248.407 273.200 C 248.412 278.793,248.493 279.191,249.757 279.882 C 251.581 280.879,253.105 278.880,252.632 276.109 C 252.491 275.279,252.202 271.540,251.991 267.800 C 251.595 260.797,251.298 258.090,250.429 253.600 C 249.487 248.726,248.095 243.616,247.549 243.020 C 247.357 242.811,247.187 242.271,247.171 241.820 C 247.155 241.369,246.797 240.460,246.375 239.800 C 245.954 239.140,245.488 238.330,245.341 238.000 C 244.506 236.131,241.416 233.202,238.862 231.860 L 236.083 230.400 230.596 230.400 C 224.660 230.400,221.995 230.874,212.000 233.705 C 211.230 233.923,209.880 234.325,209.000 234.599 C 205.260 235.762,201.982 236.520,196.176 237.564 C 180.654 240.356,163.341 226.896,154.801 205.400 C 154.626 204.960,154.014 203.560,153.441 202.289 C 152.869 201.018,152.400 199.884,152.400 199.770 C 152.400 199.150,149.287 194.790,147.927 193.506 C 144.807 190.559,140.292 189.470,134.600 190.293 M139.200 235.130 C 138.527 235.354,137.888 236.120,137.138 237.600 C 136.860 238.150,136.040 239.434,135.316 240.454 C 134.592 241.473,134.000 242.426,134.000 242.571 C 134.000 242.955,131.223 246.600,128.645 249.600 C 125.640 253.097,125.574 255.072,128.261 261.111 C 128.777 262.272,129.200 263.399,129.200 263.616 C 129.200 263.833,129.375 264.323,129.590 264.705 C 130.139 265.684,131.806 270.981,132.390 273.602 C 133.019 276.423,132.460 283.269,131.556 283.827 C 129.845 284.884,132.224 287.773,134.101 286.918 C 136.854 285.664,137.310 272.964,134.816 267.000 C 133.620 264.139,131.578 259.484,131.204 258.764 C 129.925 256.305,130.274 253.830,132.188 251.786 C 133.972 249.881,138.658 243.115,140.994 239.074 C 142.468 236.523,141.488 234.368,139.200 235.130 " stroke="none" fill="#f5f7fa" fill-rule="evenodd"></path><path id="path1" d="M182.400 14.200 C 182.400 14.691,181.711 14.800,178.600 14.800 C 176.333 14.800,174.800 14.961,174.800 15.200 C 174.800 15.433,173.467 15.600,171.600 15.600 C 169.022 15.600,168.400 15.717,168.400 16.200 C 168.400 16.667,167.867 16.800,166.000 16.800 C 164.667 16.800,163.600 16.978,163.600 17.200 C 163.600 17.422,162.533 17.600,161.200 17.600 C 159.867 17.600,158.800 17.778,158.800 18.000 C 158.800 18.220,157.990 18.400,157.000 18.400 C 155.667 18.400,155.200 18.556,155.200 19.000 C 155.200 19.453,154.711 19.600,153.200 19.600 C 152.100 19.600,151.200 19.780,151.200 20.000 C 151.200 20.220,150.570 20.400,149.800 20.400 C 149.030 20.400,148.400 20.580,148.400 20.800 C 148.400 21.020,147.590 21.200,146.600 21.200 C 145.267 21.200,144.800 21.356,144.800 21.800 C 144.800 22.233,144.356 22.400,143.200 22.400 C 142.320 22.400,141.600 22.580,141.600 22.800 C 141.600 23.020,140.970 23.200,140.200 23.200 C 139.222 23.200,138.800 23.381,138.800 23.800 C 138.800 24.219,138.378 24.400,137.400 24.400 C 136.630 24.400,136.000 24.580,136.000 24.800 C 136.000 25.020,135.550 25.200,135.000 25.200 C 134.450 25.200,134.000 25.380,134.000 25.600 C 134.000 25.820,133.370 26.000,132.600 26.000 C 131.622 26.000,131.200 26.181,131.200 26.600 C 131.200 27.019,130.778 27.200,129.800 27.200 C 129.030 27.200,128.400 27.380,128.400 27.600 C 128.400 27.820,127.950 28.000,127.400 28.000 C 126.850 28.000,126.400 28.180,126.400 28.400 C 126.400 28.620,126.040 28.800,125.600 28.800 C 125.156 28.800,124.800 29.067,124.800 29.400 C 124.800 29.819,124.378 30.000,123.400 30.000 C 122.630 30.000,122.000 30.180,122.000 30.400 C 122.000 30.620,121.550 30.800,121.000 30.800 C 120.450 30.800,120.000 30.980,120.000 31.200 C 120.000 31.420,119.550 31.600,119.000 31.600 C 118.378 31.600,118.000 31.827,118.000 32.200 C 118.000 32.573,117.622 32.800,117.000 32.800 C 116.450 32.800,116.000 32.980,116.000 33.200 C 116.000 33.420,115.640 33.600,115.200 33.600 C 114.756 33.600,114.400 33.867,114.400 34.200 C 114.400 34.573,114.022 34.800,113.400 34.800 C 112.850 34.800,112.400 34.980,112.400 35.200 C 112.400 35.420,111.950 35.600,111.400 35.600 C 110.850 35.600,110.400 35.780,110.400 36.000 C 110.400 36.220,109.950 36.400,109.400 36.400 C 108.850 36.400,108.400 36.593,108.400 36.829 C 108.400 37.534,107.314 38.400,106.429 38.400 C 105.973 38.400,105.600 38.580,105.600 38.800 C 105.600 39.020,105.240 39.200,104.800 39.200 C 104.356 39.200,104.000 39.467,104.000 39.800 C 104.000 40.130,103.730 40.400,103.400 40.400 C 103.070 40.400,102.800 40.580,102.800 40.800 C 102.800 41.020,102.440 41.200,102.000 41.200 C 101.556 41.200,101.200 41.467,101.200 41.800 C 101.200 42.173,100.822 42.400,100.200 42.400 C 99.650 42.400,99.200 42.580,99.200 42.800 C 99.200 43.020,98.930 43.200,98.600 43.200 C 98.270 43.200,98.000 43.380,98.000 43.600 C 98.000 43.820,97.640 44.000,97.200 44.000 C 96.756 44.000,96.400 44.267,96.400 44.600 C 96.400 44.930,96.130 45.200,95.800 45.200 C 95.470 45.200,95.200 45.380,95.200 45.600 C 95.200 45.820,94.840 46.000,94.400 46.000 C 93.960 46.000,93.600 46.180,93.600 46.400 C 93.600 46.620,93.330 46.800,93.000 46.800 C 92.670 46.800,92.400 47.070,92.400 47.400 C 92.400 47.738,92.042 48.000,91.582 48.000 C 90.731 48.000,88.800 49.653,88.800 50.382 C 88.800 50.612,88.427 50.800,87.971 50.800 C 87.086 50.800,86.000 51.666,86.000 52.371 C 86.000 52.607,85.730 52.800,85.400 52.800 C 85.070 52.800,84.800 52.980,84.800 53.200 C 84.800 53.420,84.427 53.600,83.971 53.600 C 83.187 53.600,82.000 54.443,82.000 55.000 C 82.000 55.503,80.847 56.400,80.200 56.400 C 79.458 56.400,78.400 57.324,78.400 57.971 C 78.400 58.207,78.207 58.400,77.971 58.400 C 77.505 58.400,76.400 59.385,76.400 59.800 C 76.400 60.134,75.334 61.200,75.000 61.200 C 74.585 61.200,73.600 62.305,73.600 62.771 C 73.600 63.007,73.190 63.200,72.688 63.200 C 72.187 63.200,71.517 63.560,71.200 64.000 C 70.883 64.440,70.393 64.800,70.112 64.800 C 69.830 64.800,69.600 64.988,69.600 65.218 C 69.600 65.761,67.761 67.600,67.218 67.600 C 66.988 67.600,66.800 67.793,66.800 68.029 C 66.800 68.582,65.782 69.600,65.229 69.600 C 64.993 69.600,64.800 69.788,64.800 70.018 C 64.800 70.561,62.961 72.400,62.418 72.400 C 62.188 72.400,62.000 72.588,62.000 72.818 C 62.000 73.361,60.161 75.200,59.618 75.200 C 59.388 75.200,59.200 75.470,59.200 75.800 C 59.200 76.130,59.020 76.400,58.800 76.400 C 58.580 76.400,58.400 76.773,58.400 77.229 C 58.400 78.013,57.557 79.200,57.000 79.200 C 56.585 79.200,55.600 80.305,55.600 80.771 C 55.600 81.007,55.412 81.200,55.182 81.200 C 54.453 81.200,52.800 83.131,52.800 83.982 C 52.800 84.442,52.538 84.800,52.200 84.800 C 51.870 84.800,51.600 84.988,51.600 85.218 C 51.600 85.761,49.761 87.600,49.218 87.600 C 48.988 87.600,48.800 87.973,48.800 88.429 C 48.800 89.314,47.934 90.400,47.229 90.400 C 46.993 90.400,46.800 90.670,46.800 91.000 C 46.800 91.330,46.620 91.600,46.400 91.600 C 46.180 91.600,46.000 91.960,46.000 92.400 C 46.000 92.840,45.820 93.200,45.600 93.200 C 45.380 93.200,45.200 93.470,45.200 93.800 C 45.200 94.130,44.930 94.400,44.600 94.400 C 44.242 94.400,44.000 94.768,44.000 95.312 C 44.000 95.813,43.640 96.483,43.200 96.800 C 42.760 97.117,42.400 97.787,42.400 98.288 C 42.400 98.790,42.207 99.200,41.971 99.200 C 41.266 99.200,40.400 100.286,40.400 101.171 C 40.400 101.627,40.207 102.000,39.971 102.000 C 39.324 102.000,38.400 103.058,38.400 103.800 C 38.400 104.542,37.476 105.600,36.829 105.600 C 36.593 105.600,36.400 106.050,36.400 106.600 C 36.400 107.150,36.220 107.600,36.000 107.600 C 35.780 107.600,35.600 108.050,35.600 108.600 C 35.600 109.150,35.420 109.600,35.200 109.600 C 34.980 109.600,34.800 109.960,34.800 110.400 C 34.800 110.844,34.533 111.200,34.200 111.200 C 33.870 111.200,33.600 111.470,33.600 111.800 C 33.600 112.130,33.420 112.400,33.200 112.400 C 32.980 112.400,32.800 112.850,32.800 113.400 C 32.800 113.950,32.620 114.400,32.400 114.400 C 32.180 114.400,32.000 114.760,32.000 115.200 C 32.000 115.644,31.733 116.000,31.400 116.000 C 31.027 116.000,30.800 116.378,30.800 117.000 C 30.800 117.550,30.620 118.000,30.400 118.000 C 30.180 118.000,30.000 118.450,30.000 119.000 C 30.000 119.622,29.773 120.000,29.400 120.000 C 29.027 120.000,28.800 120.378,28.800 121.000 C 28.800 121.550,28.620 122.000,28.400 122.000 C 28.180 122.000,28.000 122.360,28.000 122.800 C 28.000 123.240,27.820 123.600,27.600 123.600 C 27.380 123.600,27.200 124.050,27.200 124.600 C 27.200 125.222,26.973 125.600,26.600 125.600 C 26.227 125.600,26.000 125.978,26.000 126.600 C 26.000 127.150,25.820 127.600,25.600 127.600 C 25.380 127.600,25.200 128.230,25.200 129.000 C 25.200 129.770,25.020 130.400,24.800 130.400 C 24.580 130.400,24.400 130.850,24.400 131.400 C 24.400 132.022,24.173 132.400,23.800 132.400 C 23.381 132.400,23.200 132.822,23.200 133.800 C 23.200 134.570,23.020 135.200,22.800 135.200 C 22.580 135.200,22.400 135.541,22.400 135.957 C 22.400 136.374,22.130 136.818,21.800 136.945 C 21.423 137.089,21.200 137.701,21.200 138.587 C 21.200 139.364,21.020 140.000,20.800 140.000 C 20.580 140.000,20.400 140.630,20.400 141.400 C 20.400 142.170,20.220 142.800,20.000 142.800 C 19.780 142.800,19.600 143.430,19.600 144.200 C 19.600 145.178,19.419 145.600,19.000 145.600 C 18.581 145.600,18.400 146.022,18.400 147.000 C 18.400 147.770,18.220 148.400,18.000 148.400 C 17.780 148.400,17.600 149.030,17.600 149.800 C 17.600 150.570,17.420 151.200,17.200 151.200 C 16.980 151.200,16.800 152.010,16.800 153.000 C 16.800 154.333,16.644 154.800,16.200 154.800 C 15.767 154.800,15.600 155.244,15.600 156.400 C 15.600 157.280,15.420 158.000,15.200 158.000 C 14.980 158.000,14.800 158.990,14.800 160.200 C 14.800 161.410,14.620 162.400,14.400 162.400 C 14.180 162.400,14.000 163.300,14.000 164.400 C 14.000 165.911,13.853 166.400,13.400 166.400 C 12.933 166.400,12.800 166.933,12.800 168.800 C 12.800 170.133,12.622 171.200,12.400 171.200 C 12.171 171.200,12.000 172.400,12.000 174.000 C 12.000 176.222,11.876 176.800,11.400 176.800 C 10.909 176.800,10.800 177.489,10.800 180.600 C 10.800 182.867,10.639 184.400,10.400 184.400 C 10.149 184.400,10.000 186.867,10.000 191.000 C 10.000 195.133,9.851 197.600,9.600 197.600 C 9.347 197.600,9.200 200.533,9.200 205.600 C 9.200 210.667,9.347 213.600,9.600 213.600 C 9.851 213.600,10.000 216.067,10.000 220.200 C 10.000 224.333,10.149 226.800,10.400 226.800 C 10.635 226.800,10.800 228.200,10.800 230.200 C 10.800 232.956,10.914 233.600,11.400 233.600 C 11.883 233.600,12.000 234.222,12.000 236.800 C 12.000 238.667,12.167 240.000,12.400 240.000 C 12.622 240.000,12.800 241.067,12.800 242.400 C 12.800 244.267,12.933 244.800,13.400 244.800 C 13.853 244.800,14.000 245.289,14.000 246.800 C 14.000 247.900,14.180 248.800,14.400 248.800 C 14.622 248.800,14.800 249.867,14.800 251.200 C 14.800 252.533,14.978 253.600,15.200 253.600 C 15.420 253.600,15.600 254.230,15.600 255.000 C 15.600 255.978,15.781 256.400,16.200 256.400 C 16.644 256.400,16.800 256.867,16.800 258.200 C 16.800 259.190,16.980 260.000,17.200 260.000 C 17.420 260.000,17.600 260.630,17.600 261.400 C 17.600 262.170,17.780 262.800,18.000 262.800 C 18.220 262.800,18.400 263.430,18.400 264.200 C 18.400 265.178,18.581 265.600,19.000 265.600 C 19.419 265.600,19.600 266.022,19.600 267.000 C 19.600 267.770,19.780 268.400,20.000 268.400 C 20.220 268.400,20.400 269.120,20.400 270.000 C 20.400 270.880,20.580 271.600,20.800 271.600 C 21.020 271.600,21.200 272.230,21.200 273.000 C 21.200 273.978,21.381 274.400,21.800 274.400 C 22.133 274.400,22.400 274.756,22.400 275.200 C 22.400 275.640,22.580 276.000,22.800 276.000 C 23.020 276.000,23.200 276.720,23.200 277.600 C 23.200 278.756,23.367 279.200,23.800 279.200 C 24.133 279.200,24.400 279.556,24.400 280.000 C 24.400 280.440,24.580 280.800,24.800 280.800 C 25.020 280.800,25.200 281.250,25.200 281.800 C 25.200 282.350,25.380 282.800,25.600 282.800 C 25.820 282.800,26.000 283.430,26.000 284.200 C 26.000 285.178,26.181 285.600,26.600 285.600 C 26.973 285.600,27.200 285.978,27.200 286.600 C 27.200 287.150,27.380 287.600,27.600 287.600 C 27.820 287.600,28.000 288.050,28.000 288.600 C 28.000 289.150,28.180 289.600,28.400 289.600 C 28.620 289.600,28.800 289.960,28.800 290.400 C 28.800 290.844,29.067 291.200,29.400 291.200 C 29.773 291.200,30.000 291.578,30.000 292.200 C 30.000 292.750,30.180 293.200,30.400 293.200 C 30.620 293.200,30.800 293.650,30.800 294.200 C 30.800 294.822,31.027 295.200,31.400 295.200 C 31.773 295.200,32.000 295.578,32.000 296.200 C 32.000 296.750,32.180 297.200,32.400 297.200 C 32.620 297.200,32.800 297.560,32.800 298.000 C 32.800 298.440,32.980 298.800,33.200 298.800 C 33.420 298.800,33.600 299.070,33.600 299.400 C 33.600 299.730,33.870 300.000,34.200 300.000 C 34.533 300.000,34.800 300.356,34.800 300.800 C 34.800 301.240,34.980 301.600,35.200 301.600 C 35.420 301.600,35.600 302.050,35.600 302.600 C 35.600 303.150,35.780 303.600,36.000 303.600 C 36.220 303.600,36.400 304.050,36.400 304.600 C 36.400 305.150,36.593 305.600,36.829 305.600 C 37.476 305.600,38.400 306.658,38.400 307.400 C 38.400 308.142,39.324 309.200,39.971 309.200 C 40.207 309.200,40.400 309.573,40.400 310.029 C 40.400 310.914,41.266 312.000,41.971 312.000 C 42.207 312.000,42.400 312.450,42.400 313.000 C 42.400 313.550,42.580 314.000,42.800 314.000 C 43.020 314.000,43.200 314.270,43.200 314.600 C 43.200 314.930,43.380 315.200,43.600 315.200 C 43.820 315.200,44.000 315.560,44.000 316.000 C 44.000 316.444,44.267 316.800,44.600 316.800 C 44.930 316.800,45.200 317.070,45.200 317.400 C 45.200 317.730,45.380 318.000,45.600 318.000 C 45.820 318.000,46.000 318.360,46.000 318.800 C 46.000 319.240,46.180 319.600,46.400 319.600 C 46.620 319.600,46.800 319.870,46.800 320.200 C 46.800 320.530,47.030 320.800,47.312 320.800 C 47.593 320.800,48.083 321.160,48.400 321.600 C 48.717 322.040,49.207 322.400,49.488 322.400 C 49.770 322.400,50.000 322.850,50.000 323.400 C 50.000 323.950,50.180 324.400,50.400 324.400 C 50.620 324.400,50.800 324.593,50.800 324.829 C 50.800 325.382,51.818 326.400,52.371 326.400 C 52.607 326.400,52.800 326.768,52.800 327.218 C 52.800 328.069,54.453 330.000,55.182 330.000 C 55.412 330.000,55.600 330.193,55.600 330.429 C 55.600 330.982,56.618 332.000,57.171 332.000 C 57.407 332.000,57.600 332.230,57.600 332.512 C 57.600 332.793,57.960 333.283,58.400 333.600 C 58.840 333.917,59.200 334.587,59.200 335.088 C 59.200 335.590,59.388 336.000,59.618 336.000 C 60.161 336.000,62.000 337.839,62.000 338.382 C 62.000 338.612,62.188 338.800,62.418 338.800 C 62.961 338.800,64.800 340.639,64.800 341.182 C 64.800 341.412,64.993 341.600,65.229 341.600 C 65.782 341.600,66.800 342.618,66.800 343.171 C 66.800 343.407,66.988 343.600,67.218 343.600 C 67.761 343.600,69.600 345.439,69.600 345.982 C 69.600 346.212,69.830 346.400,70.112 346.400 C 70.393 346.400,70.883 346.760,71.200 347.200 C 71.517 347.640,72.187 348.000,72.688 348.000 C 73.190 348.000,73.600 348.193,73.600 348.429 C 73.600 348.982,74.618 350.000,75.171 350.000 C 75.407 350.000,75.600 350.188,75.600 350.418 C 75.600 350.961,77.439 352.800,77.982 352.800 C 78.212 352.800,78.400 353.070,78.400 353.400 C 78.400 353.733,78.756 354.000,79.200 354.000 C 79.640 354.000,80.000 354.180,80.000 354.400 C 80.000 354.620,80.193 354.800,80.429 354.800 C 80.895 354.800,82.000 355.785,82.000 356.200 C 82.000 356.757,83.187 357.600,83.971 357.600 C 84.427 357.600,84.800 357.780,84.800 358.000 C 84.800 358.220,85.070 358.400,85.400 358.400 C 85.730 358.400,86.000 358.593,86.000 358.829 C 86.000 359.534,87.086 360.400,87.971 360.400 C 88.427 360.400,88.800 360.588,88.800 360.818 C 88.800 361.547,90.731 363.200,91.582 363.200 C 92.042 363.200,92.400 363.462,92.400 363.800 C 92.400 364.130,92.670 364.400,93.000 364.400 C 93.330 364.400,93.600 364.580,93.600 364.800 C 93.600 365.020,93.960 365.200,94.400 365.200 C 94.840 365.200,95.200 365.380,95.200 365.600 C 95.200 365.820,95.470 366.000,95.800 366.000 C 96.130 366.000,96.400 366.270,96.400 366.600 C 96.400 366.933,96.756 367.200,97.200 367.200 C 97.640 367.200,98.000 367.380,98.000 367.600 C 98.000 367.820,98.270 368.000,98.600 368.000 C 98.930 368.000,99.200 368.270,99.200 368.600 C 99.200 368.973,99.578 369.200,100.200 369.200 C 100.750 369.200,101.200 369.380,101.200 369.600 C 101.200 369.820,101.560 370.000,102.000 370.000 C 102.440 370.000,102.800 370.180,102.800 370.400 C 102.800 370.620,103.070 370.800,103.400 370.800 C 103.730 370.800,104.000 371.070,104.000 371.400 C 104.000 371.733,104.356 372.000,104.800 372.000 C 105.240 372.000,105.600 372.180,105.600 372.400 C 105.600 372.620,106.050 372.800,106.600 372.800 C 107.150 372.800,107.600 372.980,107.600 373.200 C 107.600 373.420,108.050 373.600,108.600 373.600 C 109.150 373.600,109.600 373.793,109.600 374.029 C 109.600 374.734,110.686 375.600,111.571 375.600 C 112.027 375.600,112.400 375.780,112.400 376.000 C 112.400 376.220,112.850 376.400,113.400 376.400 C 114.022 376.400,114.400 376.627,114.400 377.000 C 114.400 377.333,114.756 377.600,115.200 377.600 C 115.640 377.600,116.000 377.780,116.000 378.000 C 116.000 378.220,116.450 378.400,117.000 378.400 C 117.622 378.400,118.000 378.627,118.000 379.000 C 118.000 379.373,118.378 379.600,119.000 379.600 C 119.550 379.600,120.000 379.780,120.000 380.000 C 120.000 380.220,120.630 380.400,121.400 380.400 C 122.170 380.400,122.800 380.580,122.800 380.800 C 122.800 381.020,123.250 381.200,123.800 381.200 C 124.422 381.200,124.800 381.427,124.800 381.800 C 124.800 382.133,125.156 382.400,125.600 382.400 C 126.040 382.400,126.400 382.580,126.400 382.800 C 126.400 383.020,127.120 383.200,128.000 383.200 C 128.880 383.200,129.600 383.380,129.600 383.600 C 129.600 383.820,129.960 384.000,130.400 384.000 C 130.844 384.000,131.200 384.267,131.200 384.600 C 131.200 385.019,131.622 385.200,132.600 385.200 C 133.370 385.200,134.000 385.380,134.000 385.600 C 134.000 385.820,134.450 386.000,135.000 386.000 C 135.622 386.000,136.000 386.227,136.000 386.600 C 136.000 387.019,136.422 387.200,137.400 387.200 C 138.170 387.200,138.800 387.380,138.800 387.600 C 138.800 387.820,139.430 388.000,140.200 388.000 C 140.970 388.000,141.600 388.180,141.600 388.400 C 141.600 388.620,142.320 388.800,143.200 388.800 C 144.356 388.800,144.800 388.967,144.800 389.400 C 144.800 389.844,145.267 390.000,146.600 390.000 C 147.590 390.000,148.400 390.180,148.400 390.400 C 148.400 390.620,149.030 390.800,149.800 390.800 C 150.570 390.800,151.200 390.980,151.200 391.200 C 151.200 391.420,152.100 391.600,153.200 391.600 C 154.711 391.600,155.200 391.747,155.200 392.200 C 155.200 392.661,155.711 392.800,157.400 392.800 C 158.610 392.800,159.600 392.980,159.600 393.200 C 159.600 393.420,160.500 393.600,161.600 393.600 C 162.700 393.600,163.600 393.780,163.600 394.000 C 163.600 394.229,164.800 394.400,166.400 394.400 C 168.622 394.400,169.200 394.524,169.200 395.000 C 169.200 395.476,169.778 395.600,172.000 395.600 C 173.600 395.600,174.800 395.771,174.800 396.000 C 174.800 396.242,176.533 396.400,179.200 396.400 C 182.844 396.400,183.600 396.503,183.600 397.000 C 183.600 397.525,185.911 397.600,202.000 397.600 C 218.089 397.600,220.400 397.525,220.400 397.000 C 220.400 396.509,221.089 396.400,224.200 396.400 C 226.467 396.400,228.000 396.239,228.000 396.000 C 228.000 395.767,229.333 395.600,231.200 395.600 C 233.778 395.600,234.400 395.483,234.400 395.000 C 234.400 394.533,234.933 394.400,236.800 394.400 C 238.133 394.400,239.200 394.222,239.200 394.000 C 239.200 393.778,240.267 393.600,241.600 393.600 C 242.933 393.600,244.000 393.422,244.000 393.200 C 244.000 392.980,244.900 392.800,246.000 392.800 C 247.511 392.800,248.000 392.653,248.000 392.200 C 248.000 391.756,248.467 391.600,249.800 391.600 C 250.790 391.600,251.600 391.420,251.600 391.200 C 251.600 390.980,252.500 390.800,253.600 390.800 C 254.700 390.800,255.600 390.620,255.600 390.400 C 255.600 390.180,256.230 390.000,257.000 390.000 C 257.978 390.000,258.400 389.819,258.400 389.400 C 258.400 388.981,258.822 388.800,259.800 388.800 C 260.570 388.800,261.200 388.620,261.200 388.400 C 261.200 388.180,261.830 388.000,262.600 388.000 C 263.370 388.000,264.000 387.820,264.000 387.600 C 264.000 387.380,264.630 387.200,265.400 387.200 C 266.378 387.200,266.800 387.019,266.800 386.600 C 266.800 386.181,267.222 386.000,268.200 386.000 C 268.970 386.000,269.600 385.820,269.600 385.600 C 269.600 385.380,270.050 385.200,270.600 385.200 C 271.222 385.200,271.600 384.973,271.600 384.600 C 271.600 384.181,272.022 384.000,273.000 384.000 C 273.770 384.000,274.400 383.820,274.400 383.600 C 274.400 383.380,274.850 383.200,275.400 383.200 C 275.950 383.200,276.400 383.020,276.400 382.800 C 276.400 382.580,277.030 382.400,277.800 382.400 C 278.778 382.400,279.200 382.219,279.200 381.800 C 279.200 381.427,279.578 381.200,280.200 381.200 C 280.750 381.200,281.200 381.020,281.200 380.800 C 281.200 380.580,281.560 380.400,282.000 380.400 C 282.440 380.400,282.800 380.220,282.800 380.000 C 282.800 379.780,283.250 379.600,283.800 379.600 C 284.422 379.600,284.800 379.373,284.800 379.000 C 284.800 378.627,285.178 378.400,285.800 378.400 C 286.350 378.400,286.800 378.220,286.800 378.000 C 286.800 377.780,287.250 377.600,287.800 377.600 C 288.422 377.600,288.800 377.373,288.800 377.000 C 288.800 376.667,289.156 376.400,289.600 376.400 C 290.040 376.400,290.400 376.220,290.400 376.000 C 290.400 375.780,290.850 375.600,291.400 375.600 C 291.950 375.600,292.400 375.420,292.400 375.200 C 292.400 374.980,292.850 374.800,293.400 374.800 C 294.022 374.800,294.400 374.573,294.400 374.200 C 294.400 373.842,294.768 373.600,295.312 373.600 C 295.813 373.600,296.483 373.240,296.800 372.800 C 297.117 372.360,297.787 372.000,298.288 372.000 C 298.832 372.000,299.200 371.758,299.200 371.400 C 299.200 371.067,299.556 370.800,300.000 370.800 C 300.440 370.800,300.800 370.620,300.800 370.400 C 300.800 370.180,301.173 370.000,301.629 370.000 C 302.514 370.000,303.600 369.134,303.600 368.429 C 303.600 368.193,304.050 368.000,304.600 368.000 C 305.150 368.000,305.600 367.820,305.600 367.600 C 305.600 367.380,305.870 367.200,306.200 367.200 C 306.530 367.200,306.800 366.930,306.800 366.600 C 306.800 366.267,307.156 366.000,307.600 366.000 C 308.040 366.000,308.400 365.820,308.400 365.600 C 308.400 365.380,308.670 365.200,309.000 365.200 C 309.330 365.200,309.600 365.020,309.600 364.800 C 309.600 364.580,309.960 364.400,310.400 364.400 C 310.844 364.400,311.200 364.133,311.200 363.800 C 311.200 363.470,311.470 363.200,311.800 363.200 C 312.130 363.200,312.400 363.020,312.400 362.800 C 312.400 362.580,312.773 362.400,313.229 362.400 C 314.013 362.400,315.200 361.557,315.200 361.000 C 315.200 360.443,316.387 359.600,317.171 359.600 C 317.627 359.600,318.000 359.407,318.000 359.171 C 318.000 358.705,318.985 357.600,319.400 357.600 C 319.815 357.600,320.800 356.495,320.800 356.029 C 320.800 355.793,321.210 355.600,321.712 355.600 C 322.213 355.600,322.883 355.240,323.200 354.800 C 323.517 354.360,324.007 354.000,324.288 354.000 C 324.570 354.000,324.800 353.807,324.800 353.571 C 324.800 352.924,325.858 352.000,326.600 352.000 C 327.247 352.000,328.400 351.103,328.400 350.600 C 328.400 350.185,329.505 349.200,329.971 349.200 C 330.207 349.200,330.400 349.007,330.400 348.771 C 330.400 348.305,331.385 347.200,331.800 347.200 C 332.134 347.200,333.200 346.134,333.200 345.800 C 333.200 345.466,334.266 344.400,334.600 344.400 C 334.934 344.400,336.000 343.334,336.000 343.000 C 336.000 342.585,337.105 341.600,337.571 341.600 C 337.807 341.600,338.000 341.407,338.000 341.171 C 338.000 340.705,338.985 339.600,339.400 339.600 C 339.734 339.600,340.800 338.534,340.800 338.200 C 340.800 337.866,341.866 336.800,342.200 336.800 C 342.534 336.800,343.600 335.734,343.600 335.400 C 343.600 335.066,344.666 334.000,345.000 334.000 C 345.334 334.000,346.400 332.934,346.400 332.600 C 346.400 332.185,347.505 331.200,347.971 331.200 C 348.207 331.200,348.400 330.827,348.400 330.371 C 348.400 329.486,349.266 328.400,349.971 328.400 C 350.207 328.400,350.400 328.170,350.400 327.888 C 350.400 327.607,350.760 327.117,351.200 326.800 C 351.640 326.483,352.000 325.813,352.000 325.312 C 352.000 324.810,352.193 324.400,352.429 324.400 C 352.895 324.400,354.000 323.415,354.000 323.000 C 354.000 322.585,355.105 321.600,355.571 321.600 C 355.807 321.600,356.000 321.227,356.000 320.771 C 356.000 319.886,356.866 318.800,357.571 318.800 C 357.807 318.800,358.000 318.432,358.000 317.982 C 358.000 317.131,359.653 315.200,360.382 315.200 C 360.612 315.200,360.800 314.750,360.800 314.200 C 360.800 313.650,360.980 313.200,361.200 313.200 C 361.420 313.200,361.600 312.930,361.600 312.600 C 361.600 312.270,361.780 312.000,362.000 312.000 C 362.220 312.000,362.400 311.640,362.400 311.200 C 362.400 310.756,362.667 310.400,363.000 310.400 C 363.330 310.400,363.600 310.130,363.600 309.800 C 363.600 309.470,363.780 309.200,364.000 309.200 C 364.220 309.200,364.400 308.859,364.400 308.443 C 364.400 308.026,364.670 307.582,365.000 307.455 C 365.330 307.329,365.600 306.859,365.600 306.413 C 365.600 305.966,365.780 305.600,366.000 305.600 C 366.220 305.600,366.400 305.330,366.400 305.000 C 366.400 304.670,366.580 304.400,366.800 304.400 C 367.020 304.400,367.200 304.040,367.200 303.600 C 367.200 303.156,367.467 302.800,367.800 302.800 C 368.158 302.800,368.400 302.432,368.400 301.888 C 368.400 301.387,368.760 300.717,369.200 300.400 C 369.640 300.083,370.000 299.413,370.000 298.912 C 370.000 298.368,370.242 298.000,370.600 298.000 C 370.973 298.000,371.200 297.622,371.200 297.000 C 371.200 296.450,371.380 296.000,371.600 296.000 C 371.820 296.000,372.000 295.550,372.000 295.000 C 372.000 294.450,372.180 294.000,372.400 294.000 C 372.620 294.000,372.800 293.640,372.800 293.200 C 372.800 292.756,373.067 292.400,373.400 292.400 C 373.773 292.400,374.000 292.022,374.000 291.400 C 374.000 290.850,374.180 290.400,374.400 290.400 C 374.620 290.400,374.800 289.950,374.800 289.400 C 374.800 288.778,375.027 288.400,375.400 288.400 C 375.773 288.400,376.000 288.022,376.000 287.400 C 376.000 286.850,376.180 286.400,376.400 286.400 C 376.620 286.400,376.800 286.040,376.800 285.600 C 376.800 285.160,376.980 284.800,377.200 284.800 C 377.420 284.800,377.600 284.170,377.600 283.400 C 377.600 282.422,377.781 282.000,378.200 282.000 C 378.573 282.000,378.800 281.622,378.800 281.000 C 378.800 280.450,378.980 280.000,379.200 280.000 C 379.420 280.000,379.600 279.550,379.600 279.000 C 379.600 278.450,379.780 278.000,380.000 278.000 C 380.220 278.000,380.400 277.370,380.400 276.600 C 380.400 275.622,380.581 275.200,381.000 275.200 C 381.419 275.200,381.600 274.778,381.600 273.800 C 381.600 273.030,381.780 272.400,382.000 272.400 C 382.220 272.400,382.400 271.950,382.400 271.400 C 382.400 270.778,382.627 270.400,383.000 270.400 C 383.419 270.400,383.600 269.978,383.600 269.000 C 383.600 268.230,383.780 267.600,384.000 267.600 C 384.220 267.600,384.400 266.970,384.400 266.200 C 384.400 265.430,384.580 264.800,384.800 264.800 C 385.020 264.800,385.200 264.170,385.200 263.400 C 385.200 262.422,385.381 262.000,385.800 262.000 C 386.253 262.000,386.400 261.511,386.400 260.000 C 386.400 258.900,386.580 258.000,386.800 258.000 C 387.020 258.000,387.200 257.370,387.200 256.600 C 387.200 255.830,387.380 255.200,387.600 255.200 C 387.820 255.200,388.000 254.390,388.000 253.400 C 388.000 252.067,388.156 251.600,388.600 251.600 C 389.067 251.600,389.200 251.067,389.200 249.200 C 389.200 247.867,389.378 246.800,389.600 246.800 C 389.822 246.800,390.000 245.733,390.000 244.400 C 390.000 243.067,390.178 242.000,390.400 242.000 C 390.622 242.000,390.800 240.933,390.800 239.600 C 390.800 237.733,390.933 237.200,391.400 237.200 C 391.883 237.200,392.000 236.578,392.000 234.000 C 392.000 232.133,392.167 230.800,392.400 230.800 C 392.642 230.800,392.800 229.067,392.800 226.400 C 392.800 222.756,392.903 222.000,393.400 222.000 C 393.924 222.000,394.000 219.911,394.000 205.600 C 394.000 191.289,393.924 189.200,393.400 189.200 C 392.903 189.200,392.800 188.444,392.800 184.800 C 392.800 182.133,392.642 180.400,392.400 180.400 C 392.167 180.400,392.000 179.067,392.000 177.200 C 392.000 174.622,391.883 174.000,391.400 174.000 C 390.933 174.000,390.800 173.467,390.800 171.600 C 390.800 170.267,390.622 169.200,390.400 169.200 C 390.178 169.200,390.000 168.133,390.000 166.800 C 390.000 165.467,389.822 164.400,389.600 164.400 C 389.378 164.400,389.200 163.333,389.200 162.000 C 389.200 160.133,389.067 159.600,388.600 159.600 C 388.156 159.600,388.000 159.133,388.000 157.800 C 388.000 156.810,387.820 156.000,387.600 156.000 C 387.380 156.000,387.200 155.370,387.200 154.600 C 387.200 153.830,387.020 153.200,386.800 153.200 C 386.580 153.200,386.400 152.300,386.400 151.200 C 386.400 149.689,386.253 149.200,385.800 149.200 C 385.381 149.200,385.200 148.778,385.200 147.800 C 385.200 147.030,385.020 146.400,384.800 146.400 C 384.580 146.400,384.400 145.770,384.400 145.000 C 384.400 144.230,384.220 143.600,384.000 143.600 C 383.780 143.600,383.600 142.970,383.600 142.200 C 383.600 141.222,383.419 140.800,383.000 140.800 C 382.581 140.800,382.400 140.378,382.400 139.400 C 382.400 138.630,382.220 138.000,382.000 138.000 C 381.780 138.000,381.600 137.550,381.600 137.000 C 381.600 136.378,381.373 136.000,381.000 136.000 C 380.581 136.000,380.400 135.578,380.400 134.600 C 380.400 133.830,380.220 133.200,380.000 133.200 C 379.780 133.200,379.600 132.750,379.600 132.200 C 379.600 131.650,379.420 131.200,379.200 131.200 C 378.980 131.200,378.800 130.750,378.800 130.200 C 378.800 129.578,378.573 129.200,378.200 129.200 C 377.781 129.200,377.600 128.778,377.600 127.800 C 377.600 127.030,377.420 126.400,377.200 126.400 C 376.980 126.400,376.800 126.040,376.800 125.600 C 376.800 125.160,376.620 124.800,376.400 124.800 C 376.180 124.800,376.000 124.350,376.000 123.800 C 376.000 123.178,375.773 122.800,375.400 122.800 C 375.027 122.800,374.800 122.422,374.800 121.800 C 374.800 121.250,374.620 120.800,374.400 120.800 C 374.180 120.800,374.000 120.350,374.000 119.800 C 374.000 119.178,373.773 118.800,373.400 118.800 C 373.067 118.800,372.800 118.444,372.800 118.000 C 372.800 117.560,372.620 117.200,372.400 117.200 C 372.180 117.200,372.000 116.750,372.000 116.200 C 372.000 115.650,371.820 115.200,371.600 115.200 C 371.380 115.200,371.200 114.750,371.200 114.200 C 371.200 113.578,370.973 113.200,370.600 113.200 C 370.242 113.200,370.000 112.832,370.000 112.288 C 370.000 111.787,369.640 111.117,369.200 110.800 C 368.760 110.483,368.400 109.813,368.400 109.312 C 368.400 108.768,368.158 108.400,367.800 108.400 C 367.467 108.400,367.200 108.044,367.200 107.600 C 367.200 107.160,367.020 106.800,366.800 106.800 C 366.580 106.800,366.400 106.530,366.400 106.200 C 366.400 105.870,366.220 105.600,366.000 105.600 C 365.780 105.600,365.600 105.240,365.600 104.800 C 365.600 104.356,365.333 104.000,365.000 104.000 C 364.627 104.000,364.400 103.622,364.400 103.000 C 364.400 102.450,364.220 102.000,364.000 102.000 C 363.780 102.000,363.600 101.730,363.600 101.400 C 363.600 101.070,363.330 100.800,363.000 100.800 C 362.667 100.800,362.400 100.444,362.400 100.000 C 362.400 99.560,362.220 99.200,362.000 99.200 C 361.780 99.200,361.600 98.930,361.600 98.600 C 361.600 98.270,361.420 98.000,361.200 98.000 C 360.980 98.000,360.800 97.640,360.800 97.200 C 360.800 96.756,360.533 96.400,360.200 96.400 C 359.870 96.400,359.600 96.130,359.600 95.800 C 359.600 95.470,359.420 95.200,359.200 95.200 C 358.980 95.200,358.800 94.827,358.800 94.371 C 358.800 93.587,357.957 92.400,357.400 92.400 C 356.843 92.400,356.000 91.213,356.000 90.429 C 356.000 89.973,355.807 89.600,355.571 89.600 C 355.105 89.600,354.000 88.615,354.000 88.200 C 354.000 87.785,352.895 86.800,352.429 86.800 C 352.193 86.800,352.000 86.424,352.000 85.964 C 352.000 85.500,351.201 84.352,350.200 83.379 C 349.210 82.417,348.400 81.263,348.400 80.815 C 348.400 80.367,348.212 80.000,347.982 80.000 C 347.439 80.000,345.600 78.161,345.600 77.618 C 345.600 77.388,345.407 77.200,345.171 77.200 C 344.705 77.200,343.600 76.215,343.600 75.800 C 343.600 75.466,342.534 74.400,342.200 74.400 C 341.866 74.400,340.800 73.334,340.800 73.000 C 340.800 72.666,339.734 71.600,339.400 71.600 C 338.985 71.600,338.000 70.495,338.000 70.029 C 338.000 69.793,337.807 69.600,337.571 69.600 C 337.105 69.600,336.000 68.615,336.000 68.200 C 336.000 67.866,334.934 66.800,334.600 66.800 C 334.266 66.800,333.200 65.734,333.200 65.400 C 333.200 65.066,332.134 64.000,331.800 64.000 C 331.385 64.000,330.400 62.895,330.400 62.429 C 330.400 62.193,330.212 62.000,329.982 62.000 C 329.439 62.000,327.600 60.161,327.600 59.618 C 327.600 59.388,327.242 59.200,326.805 59.200 C 325.997 59.200,322.000 55.545,322.000 54.805 C 322.000 54.582,321.550 54.400,321.000 54.400 C 320.450 54.400,320.000 54.220,320.000 54.000 C 320.000 53.780,319.807 53.600,319.571 53.600 C 319.018 53.600,318.000 52.582,318.000 52.029 C 318.000 51.793,317.627 51.600,317.171 51.600 C 316.387 51.600,315.200 50.757,315.200 50.200 C 315.200 49.643,314.013 48.800,313.229 48.800 C 312.773 48.800,312.400 48.620,312.400 48.400 C 312.400 48.180,312.130 48.000,311.800 48.000 C 311.470 48.000,311.200 47.730,311.200 47.400 C 311.200 47.067,310.844 46.800,310.400 46.800 C 309.960 46.800,309.600 46.620,309.600 46.400 C 309.600 46.180,309.330 46.000,309.000 46.000 C 308.670 46.000,308.400 45.820,308.400 45.600 C 308.400 45.380,308.040 45.200,307.600 45.200 C 307.156 45.200,306.800 44.933,306.800 44.600 C 306.800 44.270,306.530 44.000,306.200 44.000 C 305.870 44.000,305.600 43.820,305.600 43.600 C 305.600 43.380,305.227 43.200,304.771 43.200 C 303.886 43.200,302.800 42.334,302.800 41.629 C 302.800 41.393,302.350 41.200,301.800 41.200 C 301.250 41.200,300.800 41.020,300.800 40.800 C 300.800 40.580,300.521 40.400,300.181 40.400 C 299.840 40.400,299.145 39.950,298.635 39.400 C 298.125 38.850,297.414 38.400,297.054 38.400 C 296.694 38.400,296.400 38.220,296.400 38.000 C 296.400 37.780,295.950 37.600,295.400 37.600 C 294.778 37.600,294.400 37.373,294.400 37.000 C 294.400 36.627,294.022 36.400,293.400 36.400 C 292.850 36.400,292.400 36.220,292.400 36.000 C 292.400 35.780,291.950 35.600,291.400 35.600 C 290.850 35.600,290.400 35.420,290.400 35.200 C 290.400 34.980,290.040 34.800,289.600 34.800 C 289.156 34.800,288.800 34.533,288.800 34.200 C 288.800 33.827,288.422 33.600,287.800 33.600 C 287.250 33.600,286.800 33.420,286.800 33.200 C 286.800 32.980,286.350 32.800,285.800 32.800 C 285.178 32.800,284.800 32.573,284.800 32.200 C 284.800 31.827,284.422 31.600,283.800 31.600 C 283.250 31.600,282.800 31.420,282.800 31.200 C 282.800 30.980,282.440 30.800,282.000 30.800 C 281.560 30.800,281.200 30.620,281.200 30.400 C 281.200 30.180,280.750 30.000,280.200 30.000 C 279.578 30.000,279.200 29.773,279.200 29.400 C 279.200 28.981,278.778 28.800,277.800 28.800 C 277.030 28.800,276.400 28.620,276.400 28.400 C 276.400 28.180,275.950 28.000,275.400 28.000 C 274.850 28.000,274.400 27.820,274.400 27.600 C 274.400 27.380,273.950 27.200,273.400 27.200 C 272.778 27.200,272.400 26.973,272.400 26.600 C 272.400 26.181,271.978 26.000,271.000 26.000 C 270.230 26.000,269.600 25.820,269.600 25.600 C 269.600 25.380,268.970 25.200,268.200 25.200 C 267.430 25.200,266.800 25.020,266.800 24.800 C 266.800 24.580,266.170 24.400,265.400 24.400 C 264.422 24.400,264.000 24.219,264.000 23.800 C 264.000 23.381,263.578 23.200,262.600 23.200 C 261.830 23.200,261.200 23.020,261.200 22.800 C 261.200 22.580,260.570 22.400,259.800 22.400 C 258.822 22.400,258.400 22.219,258.400 21.800 C 258.400 21.381,257.978 21.200,257.000 21.200 C 256.230 21.200,255.600 21.020,255.600 20.800 C 255.600 20.580,254.700 20.400,253.600 20.400 C 252.500 20.400,251.600 20.220,251.600 20.000 C 251.600 19.780,250.790 19.600,249.800 19.600 C 248.467 19.600,248.000 19.444,248.000 19.000 C 248.000 18.547,247.511 18.400,246.000 18.400 C 244.900 18.400,244.000 18.220,244.000 18.000 C 244.000 17.780,243.190 17.600,242.200 17.600 C 241.210 17.600,240.400 17.420,240.400 17.200 C 240.400 16.969,239.133 16.800,237.400 16.800 C 235.000 16.800,234.400 16.680,234.400 16.200 C 234.400 15.724,233.822 15.600,231.600 15.600 C 230.000 15.600,228.800 15.429,228.800 15.200 C 228.800 14.959,227.133 14.800,224.600 14.800 C 221.133 14.800,220.400 14.695,220.400 14.200 C 220.400 13.675,218.022 13.600,201.400 13.600 C 184.778 13.600,182.400 13.675,182.400 14.200 M279.000 85.211 C 285.343 86.107,289.253 88.671,292.100 93.802 C 292.925 95.289,293.600 96.663,293.600 96.855 C 293.600 97.047,294.050 98.137,294.600 99.277 C 295.150 100.417,295.600 101.500,295.600 101.685 C 295.600 102.376,298.835 107.028,299.793 107.715 C 300.342 108.108,302.008 109.073,303.495 109.859 C 309.249 112.898,314.269 117.340,315.860 120.800 C 318.227 125.950,317.085 128.321,311.800 129.234 C 308.468 129.810,308.167 130.052,307.831 132.426 C 307.544 134.457,308.094 135.278,310.053 135.742 C 314.440 136.782,319.188 146.380,319.196 154.225 C 319.204 163.072,315.010 167.284,303.523 169.962 C 300.217 170.733,291.210 170.542,291.153 169.700 C 290.994 167.357,291.791 166.800,295.299 166.800 C 296.810 166.800,298.890 166.615,299.923 166.389 C 300.955 166.162,302.700 165.781,303.800 165.542 C 312.002 163.756,315.027 160.379,314.961 153.081 C 314.937 150.403,314.747 148.587,314.461 148.301 C 314.208 148.048,313.995 147.471,313.989 147.020 C 313.960 144.822,309.099 139.314,307.113 139.229 C 304.418 139.114,302.781 134.394,304.061 130.428 C 305.801 125.040,305.897 124.946,309.188 125.398 C 315.241 126.231,313.305 121.352,305.530 116.177 C 304.061 115.200,302.760 114.400,302.638 114.400 C 299.409 114.400,289.200 101.491,289.200 97.409 C 289.200 96.167,285.017 91.515,283.159 90.691 C 278.289 88.530,275.928 88.298,272.400 89.633 C 267.726 91.403,264.826 93.844,259.434 100.548 C 258.573 101.619,257.493 102.883,257.034 103.357 C 256.575 103.832,255.495 105.025,254.634 106.010 C 249.691 111.660,240.399 121.516,236.406 125.346 C 231.877 129.689,229.807 131.788,224.693 137.222 C 222.324 139.740,219.804 142.204,219.093 142.699 C 218.382 143.193,217.191 144.138,216.446 144.799 C 215.701 145.459,214.970 146.000,214.821 146.000 C 214.673 146.000,214.202 146.320,213.775 146.710 C 212.533 147.848,206.538 152.052,202.200 154.827 C 200.000 156.234,198.140 157.524,198.067 157.693 C 197.993 157.862,197.766 158.000,197.562 158.000 C 197.358 158.000,195.725 158.919,193.933 160.042 C 192.141 161.165,190.117 162.396,189.437 162.776 C 188.757 163.157,187.390 163.926,186.400 164.485 C 185.410 165.044,183.520 166.110,182.200 166.854 C 178.640 168.861,170.197 172.937,167.000 174.193 C 165.460 174.798,163.840 175.434,163.400 175.607 C 162.214 176.071,158.479 177.118,156.200 177.625 C 155.100 177.870,153.660 178.219,153.000 178.401 C 149.842 179.275,141.692 179.318,141.235 178.465 C 140.094 176.334,141.201 175.200,144.421 175.200 C 146.889 175.200,151.459 174.608,154.200 173.934 C 157.144 173.210,162.596 171.471,162.980 171.133 C 163.189 170.950,163.589 170.800,163.869 170.800 C 165.321 170.800,186.227 160.333,187.683 158.877 C 187.946 158.614,188.299 158.400,188.469 158.400 C 188.912 158.400,199.773 151.501,199.933 151.119 C 200.007 150.943,200.322 150.800,200.633 150.800 C 200.945 150.800,201.200 150.620,201.200 150.400 C 201.200 150.180,201.383 150.000,201.606 150.000 C 202.068 150.000,207.729 145.982,207.933 145.509 C 208.007 145.339,208.279 145.200,208.537 145.200 C 208.796 145.200,209.456 144.788,210.004 144.285 C 210.552 143.781,212.260 142.482,213.800 141.397 C 216.549 139.460,222.077 134.131,230.402 125.395 C 232.711 122.972,237.390 118.104,240.800 114.577 C 250.156 104.901,252.385 102.500,258.600 95.399 C 263.079 90.281,267.695 86.400,269.301 86.400 C 269.612 86.400,269.999 86.265,270.161 86.100 C 270.401 85.856,274.181 85.022,275.800 84.857 C 276.020 84.834,277.460 84.994,279.000 85.211 M289.490 120.075 C 291.192 121.487,289.842 123.372,287.215 123.252 C 281.038 122.971,277.307 128.620,276.549 139.402 C 276.308 142.830,276.181 143.308,275.438 143.590 C 274.421 143.976,272.510 142.975,272.160 141.874 C 271.449 139.635,266.191 135.687,261.614 133.956 C 259.728 133.243,251.922 133.240,249.600 133.952 C 241.728 136.365,236.635 141.351,233.615 149.600 C 232.856 151.671,232.619 165.050,233.218 172.000 C 233.493 175.190,233.862 179.510,234.038 181.600 C 234.215 183.690,234.570 187.290,234.827 189.600 C 235.984 199.982,234.459 201.613,229.602 195.187 C 226.973 191.709,216.628 183.600,214.819 183.600 C 214.589 183.600,214.400 183.458,214.400 183.284 C 214.400 183.111,213.365 182.437,212.100 181.787 C 210.835 181.136,209.710 180.504,209.600 180.382 C 209.376 180.134,201.048 176.067,199.800 175.597 C 195.913 174.133,195.600 173.909,195.600 172.603 C 195.600 171.206,196.959 170.219,198.295 170.647 C 201.326 171.617,213.296 177.404,215.376 178.906 C 216.478 179.701,218.855 181.200,219.013 181.200 C 219.209 181.200,226.079 186.014,226.400 186.376 C 227.173 187.248,229.708 189.200,230.066 189.200 C 230.516 189.200,230.361 185.234,229.574 176.600 C 228.516 164.989,228.707 150.890,229.969 147.400 C 232.478 140.461,237.524 134.825,243.904 131.835 C 245.694 130.996,246.722 130.661,250.646 129.632 C 252.632 129.111,258.628 129.062,260.240 129.553 C 260.878 129.748,262.210 130.140,263.200 130.426 C 265.678 131.140,269.599 133.286,271.382 134.903 C 272.412 135.838,272.972 135.602,273.124 134.169 C 273.661 129.101,277.118 122.908,280.645 120.692 C 282.977 119.228,288.043 118.874,289.490 120.075 M253.685 147.632 C 256.067 148.570,263.468 152.239,265.600 153.539 C 266.370 154.009,267.270 154.517,267.600 154.669 C 268.320 155.001,272.516 157.705,272.800 158.020 C 272.910 158.142,273.720 158.771,274.600 159.418 C 280.721 163.913,284.517 169.252,286.392 176.000 C 287.148 178.722,287.353 197.781,286.786 212.578 C 286.320 224.714,286.059 233.692,285.233 266.000 C 285.039 273.590,284.751 282.140,284.592 285.000 L 284.304 290.200 285.587 293.000 C 289.782 302.156,289.915 304.874,286.334 308.262 C 284.958 309.564,279.749 312.400,278.733 312.400 C 278.418 312.400,277.989 312.557,277.780 312.749 C 277.571 312.940,276.410 313.370,275.200 313.705 C 266.769 316.032,262.000 315.838,262.000 313.169 C 262.000 311.775,263.029 311.395,268.200 310.877 C 273.937 310.303,274.301 310.208,278.859 308.086 C 285.449 305.018,285.753 303.539,281.674 294.400 C 280.562 291.908,279.865 288.593,280.184 287.320 C 280.485 286.122,281.024 272.845,281.592 252.600 C 281.803 245.120,282.156 235.760,282.378 231.800 C 282.932 221.904,282.924 178.678,282.367 176.600 C 280.217 168.567,272.747 161.724,257.535 153.850 C 250.383 150.148,249.854 149.979,249.204 151.192 C 248.445 152.611,249.582 155.306,253.055 160.319 C 254.015 161.705,254.800 162.967,254.800 163.123 C 254.800 163.280,255.250 163.893,255.800 164.487 C 256.350 165.080,256.800 165.738,256.800 165.949 C 256.800 166.160,256.935 166.393,257.100 166.467 C 257.955 166.847,263.200 175.359,263.200 176.366 C 263.200 177.959,260.622 178.646,259.694 177.300 C 259.428 176.915,257.828 174.620,256.138 172.200 C 247.409 159.699,246.688 158.540,245.323 154.800 C 243.171 148.904,247.497 145.197,253.685 147.632 M121.100 185.852 C 121.834 186.049,122.000 186.375,122.000 187.620 C 122.000 188.852,121.827 189.200,121.100 189.428 C 115.937 191.044,104.866 197.120,100.000 201.009 C 92.223 207.224,89.814 211.712,90.123 219.410 C 90.298 223.765,90.524 225.176,91.790 229.800 C 92.151 231.120,92.539 232.650,92.653 233.200 C 92.767 233.750,93.013 234.560,93.200 235.000 C 93.387 235.440,93.634 236.250,93.748 236.800 C 93.863 237.350,94.253 238.790,94.616 240.000 C 94.979 241.210,95.422 242.830,95.600 243.600 C 95.777 244.370,96.222 246.080,96.587 247.400 C 99.555 258.116,100.253 271.094,98.781 288.200 C 98.554 290.840,98.190 295.070,97.972 297.600 C 97.754 300.130,97.296 304.630,96.954 307.600 C 95.935 316.447,95.813 316.159,101.000 317.185 C 102.320 317.446,104.030 317.817,104.800 318.009 C 105.570 318.201,107.460 318.650,109.000 319.008 C 110.540 319.365,112.430 319.807,113.200 319.991 C 113.970 320.174,116.670 320.811,119.200 321.406 C 124.075 322.553,124.800 322.887,124.800 323.987 C 124.800 326.347,122.553 326.361,113.000 324.058 C 108.259 322.915,105.635 322.299,104.200 321.993 C 103.320 321.805,101.430 321.366,100.000 321.019 C 98.570 320.671,96.770 320.283,96.000 320.155 C 91.844 319.468,91.463 318.616,92.444 312.200 C 92.878 309.360,93.338 304.254,93.975 295.200 C 94.169 292.450,94.543 287.860,94.807 285.000 C 95.441 278.115,95.466 260.970,94.846 257.600 C 93.628 250.977,93.060 248.487,92.019 245.200 C 91.566 243.770,90.730 241.070,90.161 239.200 C 89.593 237.330,88.964 235.487,88.764 235.105 C 88.564 234.723,88.400 233.956,88.400 233.400 C 88.400 232.844,88.231 232.077,88.025 231.695 C 87.669 231.033,86.979 227.876,86.033 222.576 C 85.511 219.654,85.468 215.184,85.950 213.919 C 86.142 213.413,86.623 212.010,87.020 210.800 C 88.560 206.096,91.832 201.836,96.800 198.067 C 97.570 197.483,98.290 196.898,98.400 196.768 C 99.359 195.633,108.497 190.577,114.600 187.805 C 119.544 185.559,119.762 185.493,121.100 185.852 M142.000 190.424 C 146.064 191.337,152.400 197.031,152.400 199.770 C 152.400 199.884,152.869 201.018,153.441 202.289 C 154.014 203.560,154.626 204.960,154.801 205.400 C 163.341 226.896,180.654 240.356,196.176 237.564 C 201.982 236.520,205.260 235.762,209.000 234.599 C 209.880 234.325,211.230 233.923,212.000 233.705 C 221.995 230.874,224.660 230.400,230.596 230.400 L 236.083 230.400 238.862 231.860 C 241.416 233.202,244.506 236.131,245.341 238.000 C 245.488 238.330,245.954 239.140,246.375 239.800 C 246.797 240.460,247.155 241.369,247.171 241.820 C 247.187 242.271,247.357 242.811,247.549 243.020 C 248.095 243.616,249.487 248.726,250.429 253.600 C 251.298 258.090,251.595 260.797,251.991 267.800 C 252.202 271.540,252.491 275.279,252.632 276.109 C 253.105 278.880,251.581 280.879,249.757 279.882 C 248.493 279.191,248.412 278.793,248.407 273.200 C 248.398 265.369,246.746 253.012,245.154 248.881 C 244.959 248.376,244.800 247.531,244.800 247.005 C 244.800 246.478,244.620 245.936,244.400 245.800 C 244.180 245.664,244.000 245.276,244.000 244.938 C 244.000 243.788,241.275 238.605,239.981 237.293 C 238.751 236.047,237.793 235.500,234.919 234.406 C 233.502 233.867,227.837 234.057,224.800 234.746 C 223.810 234.970,222.109 235.345,221.021 235.580 C 219.933 235.814,218.493 236.172,217.821 236.376 C 217.149 236.579,215.790 236.960,214.800 237.222 C 213.810 237.484,212.190 237.924,211.200 238.200 C 200.447 241.198,197.464 241.691,191.200 241.504 C 185.029 241.319,183.666 241.027,178.600 238.801 C 174.680 237.078,164.400 229.599,164.400 228.469 C 164.400 228.316,163.717 227.474,162.883 226.596 C 162.048 225.718,160.656 224.010,159.789 222.800 C 158.923 221.590,158.076 220.540,157.907 220.467 C 157.738 220.393,157.600 220.151,157.600 219.928 C 157.600 219.706,157.265 219.046,156.857 218.462 C 155.154 216.029,151.200 208.273,151.200 207.365 C 151.200 206.112,147.258 198.654,145.770 197.091 C 143.340 194.539,141.827 194.000,137.096 194.000 C 132.149 194.000,130.603 192.979,132.700 191.095 C 133.854 190.060,138.791 189.703,142.000 190.424 M141.604 236.207 C 142.043 237.028,141.966 237.391,140.994 239.074 C 138.658 243.115,133.972 249.881,132.188 251.786 C 130.274 253.830,129.925 256.305,131.204 258.764 C 131.578 259.484,133.620 264.139,134.816 267.000 C 137.310 272.964,136.854 285.664,134.101 286.918 C 132.224 287.773,129.845 284.884,131.556 283.827 C 132.460 283.269,133.019 276.423,132.390 273.602 C 131.806 270.981,130.139 265.684,129.590 264.705 C 129.375 264.323,129.200 263.833,129.200 263.616 C 129.200 263.399,128.777 262.272,128.261 261.111 C 125.574 255.072,125.640 253.097,128.645 249.600 C 131.223 246.600,134.000 242.955,134.000 242.571 C 134.000 242.426,134.592 241.473,135.316 240.454 C 136.040 239.434,136.860 238.150,137.138 237.600 C 138.609 234.696,140.482 234.111,141.604 236.207 " stroke="none" fill="#84bcdc" fill-rule="evenodd"></path></g></svg>