<?xml version="1.0" encoding="UTF-8"?>
<svg width="344px" height="67px" viewBox="0 0 344 67" version="1.1" xmlns="http://www.w3.org/2000/svg" xmlns:xlink="http://www.w3.org/1999/xlink">
    <!-- Generator: Sketch 49.2 (51160) - http://www.bohemiancoding.com/sketch -->
    <title>terragraph</title>
    <desc>Created with Sketch.</desc>
    <defs></defs>
    <g id="TG-Brand" stroke="none" stroke-width="1" fill="none" fill-rule="evenodd">
        <g id="Terragraph-Logo-Spacing" transform="translate(-89.000000, -91.000000)" fill="#000000">
            <path d="M89,113.032 L89,105.688 L94.544,105.688 L94.544,96.04 L103.616,96.04 L103.616,105.688 L111.392,105.688 L111.392,113.032 L103.616,113.032 L103.616,129.304 C103.616,132.976 105.416,134.344 108.152,134.344 C109.52,134.344 110.456,134.128 111.176,133.912 L112.04,141.4 C110.456,141.976 108.08,142.408 105.992,142.408 C99.8,142.408 94.544,139.816 94.544,131.032 L94.544,113.032 L89,113.032 Z M150.928,125.704 L123.424,125.704 C124,131.176 127.888,134.632 133.216,134.632 C138.184,134.632 141.064,132.112 143.08,128.08 L149.848,131.968 C146.464,138.952 141.136,142.408 133.072,142.408 C123.136,142.408 114.712,134.848 114.712,123.544 C114.712,112.24 123.136,104.68 133.504,104.68 C143.728,104.68 150.928,112.096 150.928,122.536 L150.928,125.704 Z M133.216,111.592 C128.392,111.592 124.72,114.904 123.424,119.08 L142.576,119.08 C141.712,114.472 138.328,111.592 133.216,111.592 Z M179.232,105.112 L177.792,113.68 C177,113.392 175.992,113.176 174.84,113.176 C169.44,113.176 166.2,117.712 166.2,123.76 L166.2,141.4 L157.128,141.4 L157.128,105.688 L166.2,105.688 L166.2,111.376 C168.216,107.272 171.528,104.68 176.136,104.68 C177.288,104.68 178.296,104.824 179.232,105.112 Z M205.88,105.112 L204.44,113.68 C203.648,113.392 202.64,113.176 201.488,113.176 C196.088,113.176 192.848,117.712 192.848,123.76 L192.848,141.4 L183.776,141.4 L183.776,105.688 L192.848,105.688 L192.848,111.376 C194.864,107.272 198.176,104.68 202.784,104.68 C203.936,104.68 204.944,104.824 205.88,105.112 Z M242.248,141.4 L233.032,141.4 C232.456,140.68 231.304,138.808 231.304,135.712 C228.784,140.176 224.464,142.408 219.352,142.408 C212.296,142.408 207.328,138.016 207.328,131.248 C207.328,123.976 213.304,120.448 220.072,119.44 L230.8,117.784 L230.8,116.416 C230.8,112.96 228.64,111.016 224.248,111.016 C220.072,111.016 217.84,112.816 217.84,115.048 C217.84,115.336 217.84,115.48 217.984,115.912 L209.848,118.648 C209.416,117.712 209.2,116.632 209.2,115.624 C209.2,110.08 214.672,104.68 224.248,104.68 C234.256,104.68 239.872,108.928 239.872,117.64 L239.872,132.544 C239.872,136.648 240.52,138.88 242.248,141.4 Z M221.512,135.064 C226.768,135.064 230.8,131.608 230.8,124.696 L230.8,124.048 L222.16,125.488 C218.272,126.136 216.184,127.864 216.184,130.744 C216.184,133.624 218.344,135.064 221.512,135.064 Z M248.664,140.752 L257.304,143.416 C257.016,144.208 256.872,145 256.872,145.864 C256.872,148.24 259.752,149.896 264.792,149.896 C270.192,149.896 273.576,147.088 273.576,140.104 L273.576,135.496 C271.776,138.448 268.464,140.824 263.424,140.824 C253.992,140.824 246.216,133.408 246.216,122.752 C246.216,112.096 254.28,104.68 263.496,104.68 C267.816,104.68 271.416,106.408 273.576,109.576 L273.576,105.688 L282.648,105.688 L282.648,138.952 C282.648,151.12 275.448,157.096 264.792,157.096 C254.136,157.096 247.656,152.488 247.656,144.856 C247.656,143.2 248.088,141.76 248.664,140.752 Z M264.432,112.6 C259.392,112.6 255,116.2 255,122.752 C255,129.304 259.392,132.904 264.432,132.904 C269.472,132.904 274.08,129.304 274.08,122.752 C274.08,116.2 269.472,112.6 264.432,112.6 Z M312.32,105.112 L310.88,113.68 C310.088,113.392 309.08,113.176 307.928,113.176 C302.528,113.176 299.288,117.712 299.288,123.76 L299.288,141.4 L290.216,141.4 L290.216,105.688 L299.288,105.688 L299.288,111.376 C301.304,107.272 304.616,104.68 309.224,104.68 C310.376,104.68 311.384,104.824 312.32,105.112 Z M348.688,141.4 L339.472,141.4 C338.896,140.68 337.744,138.808 337.744,135.712 C335.224,140.176 330.904,142.408 325.792,142.408 C318.736,142.408 313.768,138.016 313.768,131.248 C313.768,123.976 319.744,120.448 326.512,119.44 L337.24,117.784 L337.24,116.416 C337.24,112.96 335.08,111.016 330.688,111.016 C326.512,111.016 324.28,112.816 324.28,115.048 C324.28,115.336 324.28,115.48 324.424,115.912 L316.288,118.648 C315.856,117.712 315.64,116.632 315.64,115.624 C315.64,110.08 321.112,104.68 330.688,104.68 C340.696,104.68 346.312,108.928 346.312,117.64 L346.312,132.544 C346.312,136.648 346.96,138.88 348.688,141.4 Z M327.952,135.064 C333.208,135.064 337.24,131.608 337.24,124.696 L337.24,124.048 L328.6,125.488 C324.712,126.136 322.624,127.864 322.624,130.744 C322.624,133.624 324.784,135.064 327.952,135.064 Z M354.384,156.088 L354.384,105.688 L363.456,105.688 L363.456,110.8 C365.832,107.344 370.44,104.68 375.84,104.68 C384.768,104.68 392.256,111.664 392.256,123.544 C392.256,134.992 384.552,142.408 375.048,142.408 C370.008,142.408 366.048,140.248 363.456,137.008 L363.456,156.088 L354.384,156.088 Z M372.96,113.176 C367.128,113.176 362.88,117.712 362.88,123.544 C362.88,129.376 367.128,133.912 372.96,133.912 C378.792,133.912 383.04,129.376 383.04,123.544 C383.04,117.712 378.792,113.176 372.96,113.176 Z M432.44,117.28 L432.44,141.4 L423.368,141.4 L423.368,120.808 C423.368,116.128 420.92,113.176 416.168,113.176 C411.128,113.176 407.384,117.28 407.384,123.256 L407.384,141.4 L398.312,141.4 L398.312,91 L407.384,91 L407.384,111.304 C410.048,107.128 414.512,104.68 419.768,104.68 C427.544,104.68 432.44,109.648 432.44,117.28 Z" id="terragraph"></path>
        </g>
    </g>
</svg>